PathFileType	4	(X/Y/Z)	c:/Users/goper/Files/vsCode/490R/osim_files/C06/C06_Fast_03.trc
DataRate	CameraRate	NumFrames	NumMarkers	Units                	OrigDataRate	OrigDataStartFrame	OrigNumFrames
250.00	250.00	11	36	mm	250.0	1183	3153
                Frame#	Time	LPSIS			LASIS			LTH1			LTH2			LTH3			LTH4			LLFE			LMFE			LSH1			LSH2			LSH3			LSH4			LLMAL			LMMAL			LCAL			LMTP5			LTOE			LMTP1			RPSIS			RASIS			RTH1			RTH2			RTH3			RTH4			RLFE			RMFE			RSH1			RSH2			RSH3			RSH4			RLMAL			RMMAL			RCAL			RMTP1			RTOE			RMTP5		
		X1	Y1	Z1	X2	Y2	Z2	X3	Y3	Z3	X4	Y4	Z4	X5	Y5	Z5	X6	Y6	Z6	X7	Y7	Z7	X8	Y8	Z8	X9	Y9	Z9	X10	Y10	Z10	X11	Y11	Z11	X12	Y12	Z12	X13	Y13	Z13	X14	Y14	Z14	X15	Y15	Z15	X16	Y16	Z16	X17	Y17	Z17	X18	Y18	Z18	X19	Y19	Z19	X20	Y20	Z20	X21	Y21	Z21	X22	Y22	Z22	X23	Y23	Z23	X24	Y24	Z24	X25	Y25	Z25	X26	Y26	Z26	X27	Y27	Z27	X28	Y28	Z28	X29	Y29	Z29	X30	Y30	Z30	X31	Y31	Z31	X32	Y32	Z32	X33	Y33	Z33	X34	Y34	Z34	X35	Y35	Z35	X36	Y36	Z36

1183	4.72800	0.00000	0.00000	0.00000	0.00000	0.00000	0.00000	0.00000	0.00000	0.00000	0.00000	0.00000	0.00000	0.00000	0.00000	0.00000	0.00000	0.00000	0.00000	0.00000	0.00000	0.00000	0.00000	0.00000	0.00000	0.00000	0.00000	0.00000	0.00000	0.00000	0.00000	0.00000	0.00000	0.00000	0.00000	0.00000	0.00000	0.00000	0.00000	0.00000	0.00000	0.00000	0.00000	0.00000	0.00000	0.00000	0.00000	0.00000	0.00000	0.00000	0.00000	0.00000	0.00000	0.00000	0.00000	0.00000	0.00000	0.00000	0.00000	0.00000	0.00000	0.00000	0.00000	0.00000	0.00000	0.00000	0.00000	0.00000	0.00000	0.00000	0.00000	0.00000	0.00000	0.00000	0.00000	0.00000	0.00000	0.00000	0.00000	0.00000	0.00000	0.00000	0.00000	0.00000	0.00000	0.00000	0.00000	0.00000	0.00000	0.00000	0.00000	0.00000	0.00000	0.00000	0.00000	0.00000	0.00000	0.00000	0.00000	0.00000	0.00000	0.00000	0.00000	0.00000	0.00000	0.00000	0.00000	0.00000	0.00000
1184	4.73200	0.00000	0.00000	0.00000	0.00000	0.00000	0.00000	0.00000	0.00000	0.00000	0.00000	0.00000	0.00000	0.00000	0.00000	0.00000	0.00000	0.00000	0.00000	0.00000	0.00000	0.00000	0.00000	0.00000	0.00000	0.00000	0.00000	0.00000	0.00000	0.00000	0.00000	0.00000	0.00000	0.00000	0.00000	0.00000	0.00000	0.00000	0.00000	0.00000	0.00000	0.00000	0.00000	0.00000	0.00000	0.00000	0.00000	0.00000	0.00000	0.00000	0.00000	0.00000	0.00000	0.00000	0.00000	0.00000	0.00000	0.00000	0.00000	0.00000	0.00000	0.00000	0.00000	0.00000	0.00000	0.00000	0.00000	0.00000	0.00000	0.00000	0.00000	0.00000	0.00000	0.00000	0.00000	0.00000	0.00000	0.00000	0.00000	0.00000	0.00000	0.00000	0.00000	0.00000	0.00000	0.00000	0.00000	0.00000	0.00000	0.00000	0.00000	0.00000	0.00000	0.00000	0.00000	0.00000	0.00000	0.00000	0.00000	0.00000	0.00000	0.00000	0.00000	0.00000	0.00000	0.00000	0.00000	0.00000	0.00000
1185	4.73600	0.00000	0.00000	0.00000	0.00000	0.00000	0.00000	0.00000	0.00000	0.00000	0.00000	0.00000	0.00000	0.00000	0.00000	0.00000	0.00000	0.00000	0.00000	0.00000	0.00000	0.00000	0.00000	0.00000	0.00000	0.00000	0.00000	0.00000	0.00000	0.00000	0.00000	0.00000	0.00000	0.00000	0.00000	0.00000	0.00000	0.00000	0.00000	0.00000	0.00000	0.00000	0.00000	0.00000	0.00000	0.00000	0.00000	0.00000	0.00000	0.00000	0.00000	0.00000	0.00000	0.00000	0.00000	0.00000	0.00000	0.00000	0.00000	0.00000	0.00000	0.00000	0.00000	0.00000	0.00000	0.00000	0.00000	0.00000	0.00000	0.00000	0.00000	0.00000	0.00000	0.00000	0.00000	0.00000	0.00000	0.00000	0.00000	0.00000	0.00000	0.00000	0.00000	0.00000	0.00000	0.00000	0.00000	0.00000	0.00000	0.00000	0.00000	0.00000	0.00000	0.00000	0.00000	0.00000	0.00000	0.00000	0.00000	0.00000	0.00000	0.00000	0.00000	0.00000	0.00000	0.00000	0.00000	0.00000	0.00000
1186	4.74000	0.00000	0.00000	0.00000	0.00000	0.00000	0.00000	0.00000	0.00000	0.00000	0.00000	0.00000	0.00000	0.00000	0.00000	0.00000	0.00000	0.00000	0.00000	0.00000	0.00000	0.00000	0.00000	0.00000	0.00000	0.00000	0.00000	0.00000	0.00000	0.00000	0.00000	0.00000	0.00000	0.00000	0.00000	0.00000	0.00000	0.00000	0.00000	0.00000	0.00000	0.00000	0.00000	0.00000	0.00000	0.00000	0.00000	0.00000	0.00000	0.00000	0.00000	0.00000	0.00000	0.00000	0.00000	0.00000	0.00000	0.00000	0.00000	0.00000	0.00000	0.00000	0.00000	0.00000	0.00000	0.00000	0.00000	0.00000	0.00000	0.00000	0.00000	0.00000	0.00000	0.00000	0.00000	0.00000	0.00000	0.00000	0.00000	0.00000	0.00000	0.00000	0.00000	0.00000	0.00000	0.00000	0.00000	0.00000	0.00000	0.00000	0.00000	0.00000	0.00000	0.00000	0.00000	0.00000	0.00000	0.00000	0.00000	0.00000	0.00000	0.00000	0.00000	0.00000	0.00000	0.00000	0.00000	0.00000	0.00000
1187	4.74400	0.00000	0.00000	0.00000	0.00000	0.00000	0.00000	0.00000	0.00000	0.00000	0.00000	0.00000	0.00000	0.00000	0.00000	0.00000	0.00000	0.00000	0.00000	0.00000	0.00000	0.00000	0.00000	0.00000	0.00000	0.00000	0.00000	0.00000	0.00000	0.00000	0.00000	0.00000	0.00000	0.00000	0.00000	0.00000	0.00000	0.00000	0.00000	0.00000	0.00000	0.00000	0.00000	0.00000	0.00000	0.00000	0.00000	0.00000	0.00000	0.00000	0.00000	0.00000	0.00000	0.00000	0.00000	0.00000	0.00000	0.00000	0.00000	0.00000	0.00000	0.00000	0.00000	0.00000	0.00000	0.00000	0.00000	0.00000	0.00000	0.00000	0.00000	0.00000	0.00000	0.00000	0.00000	0.00000	0.00000	0.00000	0.00000	0.00000	0.00000	0.00000	0.00000	0.00000	0.00000	0.00000	0.00000	0.00000	0.00000	0.00000	0.00000	0.00000	0.00000	0.00000	0.00000	0.00000	0.00000	0.00000	0.00000	0.00000	0.00000	0.00000	0.00000	0.00000	0.00000	0.00000	0.00000	0.00000	0.00000
1188	4.74800	0.00000	0.00000	0.00000	0.00000	0.00000	0.00000	0.00000	0.00000	0.00000	0.00000	0.00000	0.00000	0.00000	0.00000	0.00000	0.00000	0.00000	0.00000	0.00000	0.00000	0.00000	0.00000	0.00000	0.00000	0.00000	0.00000	0.00000	0.00000	0.00000	0.00000	0.00000	0.00000	0.00000	0.00000	0.00000	0.00000	0.00000	0.00000	0.00000	0.00000	0.00000	0.00000	0.00000	0.00000	0.00000	0.00000	0.00000	0.00000	0.00000	0.00000	0.00000	0.00000	0.00000	0.00000	0.00000	0.00000	0.00000	0.00000	0.00000	0.00000	0.00000	0.00000	0.00000	0.00000	0.00000	0.00000	0.00000	0.00000	0.00000	0.00000	0.00000	0.00000	0.00000	0.00000	0.00000	0.00000	0.00000	0.00000	0.00000	0.00000	0.00000	0.00000	0.00000	0.00000	0.00000	0.00000	0.00000	0.00000	0.00000	0.00000	0.00000	0.00000	0.00000	0.00000	0.00000	0.00000	0.00000	0.00000	0.00000	0.00000	0.00000	0.00000	0.00000	0.00000	0.00000	0.00000	0.00000	0.00000
1189	4.75200	0.00000	0.00000	0.00000	0.00000	0.00000	0.00000	0.00000	0.00000	0.00000	0.00000	0.00000	0.00000	0.00000	0.00000	0.00000	0.00000	0.00000	0.00000	0.00000	0.00000	0.00000	0.00000	0.00000	0.00000	0.00000	0.00000	0.00000	0.00000	0.00000	0.00000	0.00000	0.00000	0.00000	0.00000	0.00000	0.00000	0.00000	0.00000	0.00000	0.00000	0.00000	0.00000	0.00000	0.00000	0.00000	0.00000	0.00000	0.00000	0.00000	0.00000	0.00000	0.00000	0.00000	0.00000	0.00000	0.00000	0.00000	0.00000	0.00000	0.00000	0.00000	0.00000	0.00000	0.00000	0.00000	0.00000	0.00000	0.00000	0.00000	0.00000	0.00000	0.00000	0.00000	0.00000	0.00000	0.00000	0.00000	0.00000	0.00000	0.00000	0.00000	0.00000	0.00000	0.00000	0.00000	0.00000	0.00000	0.00000	0.00000	0.00000	0.00000	0.00000	0.00000	0.00000	0.00000	0.00000	0.00000	0.00000	0.00000	0.00000	0.00000	0.00000	0.00000	0.00000	0.00000	0.00000	0.00000	0.00000
1190	4.75600	1315.11633	1001.58636	215.51605	1136.20276	986.12921	293.73248	0.00000	0.00000	0.00000	1070.69995	740.54865	373.19977	0.00000	0.00000	0.00000	0.00000	0.00000	0.00000	987.19574	507.90552	321.41080	987.75800	490.90176	204.10385	1042.16321	390.08411	339.79324	1030.15625	347.23132	336.83136	978.25616	400.99234	338.99628	976.75299	355.90436	335.14645	990.68518	108.34909	291.74139	978.07953	136.61798	216.38834	1044.77905	81.33041	236.00743	878.97009	55.11978	326.92822	822.38818	87.37584	270.42767	842.85065	70.33336	220.45416	1322.46387	1003.47681	146.92044	1143.49329	972.38843	60.94419	1265.34827	783.34741	-10.77748	1264.89941	721.11261	-1.21922	1189.18237	777.66760	2.72280	1200.58606	717.15234	8.61222	1317.63306	464.17999	65.56683	1288.34680	477.65164	168.92874	1388.84705	398.96826	57.42994	1396.44104	351.52280	59.41515	0.00000	0.00000	0.00000	0.00000	0.00000	0.00000	1417.34863	100.16847	119.16274	1398.35376	128.58495	192.72192	0.00000	0.00000	0.00000	1284.12000	42.78352	201.90446	1263.22729	60.63025	155.06264	1311.53674	38.15489	89.43491
1191	4.76000	1309.59387	999.99994	215.73642	1129.18091	982.78638	293.27527	0.00000	0.00000	0.00000	1064.78406	739.16754	373.02051	0.00000	0.00000	0.00000	0.00000	0.00000	0.00000	979.90723	506.56076	320.84222	981.06049	489.86557	203.44394	1032.60266	388.33588	339.16357	1020.11151	346.07812	336.40323	969.13275	401.07358	338.63721	966.50946	355.86826	334.54044	973.81128	107.80866	291.05630	962.59222	137.12929	215.44859	1027.11316	78.97475	235.60355	860.31866	57.55298	326.03259	804.73157	91.43040	268.94815	824.85065	73.99053	219.09984	1316.94714	1002.19342	147.30130	1138.07141	971.10059	60.89293	1261.17285	782.91992	-10.84626	1261.27979	720.71515	-1.34872	1186.15759	777.91748	1.12342	1197.00000	716.25909	8.25743	1315.17554	463.11627	66.36787	1286.80322	477.51700	168.89929	1387.84363	399.34988	57.46492	1395.56152	351.87375	59.49034	0.00000	0.00000	0.00000	0.00000	0.00000	0.00000	1417.22632	100.47904	119.29984	1398.10083	128.99010	192.84363	0.00000	0.00000	0.00000	1284.47437	42.76539	202.00089	1263.15161	60.57022	154.98238	1311.53833	38.11964	89.42198
1192	4.76400	1304.02478	998.32617	215.95013	1124.72253	983.45038	293.88013	0.00000	0.00000	0.00000	1054.65625	736.04346	373.09756	0.00000	0.00000	0.00000	0.00000	0.00000	0.00000	973.36414	505.63162	320.30228	974.24377	488.64709	202.92343	1022.61920	385.91818	338.46106	1009.65747	344.60507	335.77182	959.86884	400.38177	337.68454	956.26117	355.67722	333.87631	956.60327	107.16045	290.55612	946.45093	135.58656	215.61438	1010.69513	77.84394	235.67848	841.67108	60.27037	324.59995	787.46832	95.93031	267.50510	807.48785	77.74309	217.68623	1311.48035	1000.87115	147.64697	1131.94617	969.21985	61.39553	1257.03076	782.50836	-10.94331	1257.61462	720.26422	-1.43927	1181.01208	775.59039	2.03737	1193.34204	715.20172	7.94528	1313.72095	463.13434	66.21705	1285.14038	476.93414	168.26389	1386.73230	399.74823	57.54303	1394.70898	352.31500	59.51801	0.00000	0.00000	0.00000	0.00000	0.00000	0.00000	1417.02563	100.76445	119.35394	1397.68018	129.21419	192.97105	0.00000	0.00000	0.00000	1284.60742	43.07821	202.17439	1263.03650	60.49119	154.90163	1311.58362	38.07960	89.40095
1193	4.76800	1298.44141	996.66547	216.13928	1116.85376	982.64331	293.59558	0.00000	0.00000	0.00000	1054.69897	732.05945	372.94931	0.00000	0.00000	0.00000	1029.25525	752.81799	350.29062	965.97223	504.69095	320.03696	967.56775	487.55338	202.21671	1013.19360	384.04971	337.93237	999.36719	343.05798	335.18216	950.79858	399.96930	337.00281	946.06561	355.24594	333.12866	939.55627	106.28716	289.28668	931.08429	135.50441	214.85249	992.89856	75.50990	235.20479	823.77863	63.69719	323.45190	770.77289	100.37988	266.28406	791.05615	81.36825	216.88278	1305.97510	999.53424	147.99413	1132.43787	971.53760	56.88450	1252.91699	782.06433	-11.00747	1253.90918	719.76538	-1.53664	1177.76831	775.64130	0.52654	1189.67322	714.20892	7.60770	1312.19397	463.12061	66.04579	1283.12622	477.02319	168.62839	1385.50732	400.06537	57.59617	1393.65857	352.60220	59.56523	0.00000	0.00000	0.00000	0.00000	0.00000	0.00000	1416.84656	101.04872	119.43478	1397.29395	129.53606	193.01649	0.00000	0.00000	0.00000	1284.52136	43.05056	202.13933	1262.96094	60.38878	154.87195	1311.55090	38.03350	89.39217
